<svg width="174" height="175" viewBox="0 0 174 175" fill="none" xmlns="http://www.w3.org/2000/svg">
<path d="M87.051 15.676C110.31 15.676 113.064 15.778 122.211 16.186C130.713 16.5601 135.303 17.9883 138.363 19.1784C142.41 20.7426 145.334 22.6469 148.361 25.6732C151.421 28.7336 153.291 31.624 154.856 35.6705C156.046 38.7309 157.474 43.3555 157.848 51.8225C158.256 61.0037 158.358 63.7581 158.358 86.983C158.358 110.242 158.256 112.996 157.848 122.143C157.474 130.645 156.046 135.235 154.856 138.295C153.291 142.342 151.387 145.266 148.361 148.293C145.3 151.353 142.41 153.223 138.363 154.788C135.303 155.978 130.679 157.406 122.211 157.78C113.03 158.188 110.276 158.29 87.051 158.29C63.7921 158.29 61.0377 158.188 51.8906 157.78C43.3895 157.406 38.7989 155.978 35.7385 154.788C31.692 153.223 28.7676 151.319 25.7413 148.293C22.6809 145.232 20.8106 142.342 19.2464 138.295C18.0563 135.235 16.6281 130.611 16.2541 122.143C15.846 112.962 15.744 110.208 15.744 86.983C15.744 63.7241 15.846 60.9697 16.2541 51.8225C16.6281 43.3215 18.0563 38.7309 19.2464 35.6705C20.8106 31.624 22.7149 28.6996 25.7413 25.6732C28.8016 22.6129 31.692 20.7426 35.7385 19.1784C38.7989 17.9883 43.4235 16.5601 51.8906 16.186C61.0377 15.778 63.7921 15.676 87.051 15.676ZM87.051 0C63.418 0 60.4596 0.102013 51.1765 0.510064C41.9273 0.918116 35.5685 2.4143 30.0598 4.55658C24.3131 6.80086 19.4505 9.75923 14.6218 14.6218C9.75923 19.4505 6.80086 24.3131 4.55658 30.0258C2.4143 35.5685 0.918116 41.8933 0.510064 51.1425C0.102013 60.4596 0 63.418 0 87.051C0 110.684 0.102013 113.642 0.510064 122.926C0.918116 132.175 2.4143 138.534 4.55658 144.042C6.80086 149.789 9.75923 154.652 14.6218 159.48C19.4505 164.309 24.3131 167.301 30.0258 169.511C35.5685 171.654 41.8933 173.15 51.1425 173.558C60.4256 173.966 63.384 174.068 87.017 174.068C110.65 174.068 113.608 173.966 122.892 173.558C132.141 173.15 138.5 171.654 144.008 169.511C149.721 167.301 154.584 164.309 159.412 159.48C164.241 154.652 167.233 149.789 169.443 144.076C171.586 138.534 173.082 132.209 173.49 122.96C173.898 113.676 174 110.718 174 87.085C174 63.452 173.898 60.4936 173.49 51.2105C173.082 41.9613 171.586 35.6025 169.443 30.0938C167.301 24.3131 164.343 19.4505 159.48 14.6218C154.652 9.79324 149.789 6.80086 144.076 4.59058C138.534 2.44831 132.209 0.95212 122.96 0.544069C113.642 0.102013 110.684 0 87.051 0Z" fill="black"/>
<path d="M87.051 42.3353C62.3639 42.3353 42.3353 62.3639 42.3353 87.051C42.3353 111.738 62.3639 131.767 87.051 131.767C111.738 131.767 131.767 111.738 131.767 87.051C131.767 62.3639 111.738 42.3353 87.051 42.3353ZM87.051 116.057C71.035 116.057 58.0453 103.067 58.0453 87.051C58.0453 71.035 71.035 58.0453 87.051 58.0453C103.067 58.0453 116.057 71.035 116.057 87.051C116.057 103.067 103.067 116.057 87.051 116.057Z" fill="black"/>
<path d="M143.974 40.5668C143.974 46.3475 139.282 51.0061 133.535 51.0061C127.754 51.0061 123.096 46.3135 123.096 40.5668C123.096 34.786 127.788 30.1274 133.535 30.1274C139.282 30.1274 143.974 34.82 143.974 40.5668Z" fill="black"/>
</svg>
